<?xml version="1.0" encoding="utf-8"?>
<!-- Generator: Adobe Illustrator 25.2.0, SVG Export Plug-In . SVG Version: 6.00 Build 0)  -->
<svg version="1.1" id="Layer_1" xmlns="http://www.w3.org/2000/svg" xmlns:xlink="http://www.w3.org/1999/xlink" x="0px" y="0px"
	 viewBox="0 0 1326 501" style="enable-background:new 0 0 1326 501;" xml:space="preserve">
<style type="text/css">
	.st0{fill:url(#SVGID_1_);}
	.st1{fill:#FFFFFF;}
	.st2{font-family:'ProximaNova-Semibold';}
	.st3{font-size:90.74px;}
</style>
<image style="overflow:visible;enable-background:new    ;" width="2785" height="986" xlink:href="666B737509EF0A03.png"  transform="matrix(0.48 0 0 0.48 -1.68 4.76)">
</image>
<linearGradient id="SVGID_1_" gradientUnits="userSpaceOnUse" x1="3.72" y1="260.5" x2="1329.6799" y2="260.5" gradientTransform="matrix(1 0 0 -1 0 502)">
	<stop  offset="0" style="stop-color:#000000;stop-opacity:0.5"/>
	<stop  offset="1" style="stop-color:#FFFFFF;stop-opacity:0"/>
</linearGradient>
<rect x="3.7" y="5" class="st0" width="1326" height="473"/>
<text transform="matrix(1 0 0 1 153.4 157.6)" class="st1 st2 st3">MAKING </text>
<text transform="matrix(1 0 0 1 153.4 247.6)" class="st1 st2 st3">CLEAN</text>
<text transform="matrix(1 0 0 1 153.4 337.6)" class="st1 st2 st3">ARTWORK</text>
<path class="st1" d="M3-11.5C-10-3-23,12-9,19.7c4.2,2.3,9.9,3,15.2,3.5c71.9,6,142.1-19.8,214.5-18.9c41.9,0.6,82.2,10,123.4,15.2
	c80.9,10.1,164.1,3.6,245.7-3.7C640,11.4,690.3,6.7,741,6.7c80.6-0.1,160.5,11.6,241.2,11.7c143.7,0.2,309.7-1.5,452.6-26.1
	C1256.3-3.2,1052-1.5,875.2-18.9c-71.8-7.1-151-4.2-223.5-7.1c-72.9-2.9-138-11.4-210.7-6.5c-146.2,9.9-292.7,19-439.6,19.5"/>
<path class="st1" d="M-38,503c63.8-70.6,170.1-90.1,267.1-84.6S421,449.7,518,451.5c84.1,1.6,167.4-14.9,251.4-18.5
	c76.1-3.3,152.2,3.9,226.3,21.3c44.3,10.5,88.9,24.7,134.4,20.9c31-2.6,60.6-13.5,90.5-21.8c79.9-22.1,163.7-26.2,245.4-11.9
	c-13.3,40.8-51.9,70.2-93.7,84.1s-87.1,14.4-131.3,13.6c-251.8-4.7-502.9-49.5-754.1-32.5C323.2,517.8,157.3,555-3,521.2
	c-19.3-4.1-42.4-13.8-43-32.8"/>
</svg>
