<svg id="Layer_1" data-name="Layer 1" xmlns="http://www.w3.org/2000/svg" viewBox="0 0 1353 319"><defs><style>.cls-1{fill:#22487f;}</style></defs><rect class="cls-1" y="45.38" width="1383" height="274"/><path class="cls-1" d="M-17.41,63.38C40.53,37.37,110,31.57,177,32.79S310.9,41.66,377.9,40.18C438,38.86,497.3,30.21,557,25c69.33-6,139.21-7.35,209-8.68,40.35-.77,81.55-1.45,120.21,7.87,14.3,3.45,28.09,8.24,42.62,11,25.37,4.9,51.87,3.56,77.87,2.2l266.08-14c19.6-1,40.37-1.87,57.8,5.33s28.86,25.64,18.17,38.47c-8.55,10.26-26.3,12.43-42,13.48C1062.05,97.17,815.71,70.53,569.91,70.5c-58.49,0-117.11,1.49-175.4-2.68-59.17-4.23-117.72-14.28-177.09-15.45C144,50.93,69.1,63-1.92,48"/></svg>