<svg id="Layer_1" data-name="Layer 1" xmlns="http://www.w3.org/2000/svg" viewBox="0 0 293 327"><defs><style>.cls-1{fill:#203044;}</style></defs><path class="cls-1" d="M251.55,218.2l-15-15a3.93,3.93,0,0,0-2.75-1.15,3.77,3.77,0,0,0-2.74,1.15l-29.32,29.33L187.3,218.09l29.33-29.33a3.88,3.88,0,0,0,0-5.43l-15-15a3.93,3.93,0,0,0-2.75-1.15,3.77,3.77,0,0,0-2.74,1.15l-94,94.07a3.83,3.83,0,0,0,0,5.37l13.54,13.54a3.88,3.88,0,0,0,2.74,1.16l-8.11-17.38L199,176.42l9.54,9.54-29.33,29.33a3.88,3.88,0,0,0,0,5.43l19.9,19.9a3.91,3.91,0,0,0,2.74,1.15,3.77,3.77,0,0,0,2.74-1.15l29.33-29.33,9.54,9.54L168.66,296.6l22.48-14.21a3.77,3.77,0,0,0,2.74-1.15l57.73-57.73A3.79,3.79,0,0,0,251.55,218.2Z"/><path class="cls-1" d="M150.86,310.93l88.91-90.09L233.9,215l-27.49,27.49a6.59,6.59,0,0,1-9.16,0l-19.9-19.9a6.45,6.45,0,0,1,0-9.11L204.84,186,199,180.11l-85.52,85.51,9.08,19.43h-4.09a6.5,6.5,0,0,1-4.58-1.92l-13.54-13.54a6.43,6.43,0,0,1,0-9l94-94.07a6.61,6.61,0,0,1,9.17,0l15,15a6.45,6.45,0,0,1,0,9.11L191,218.09l10.79,10.79,27.49-27.49a6.37,6.37,0,0,1,4.59-1.91,6.55,6.55,0,0,1,4.58,1.91l15,15a6.39,6.39,0,0,1,1.88,4.51,6.21,6.21,0,0,1-1.82,4.49l-57.73,57.73a6.37,6.37,0,0,1-3.74,1.86Zm83-103.32,13.21,13.21-60.66,61.45,3.94-2.48h.75a1.18,1.18,0,0,0,.9-.39l57.73-57.73a1.11,1.11,0,0,0,.3-.78,1.26,1.26,0,0,0-.36-.85l-15-15a1.25,1.25,0,0,0-1.81,0l-31.17,31.17-18.15-18.15,31.17-31.17a1.26,1.26,0,0,0,0-1.75l-15-15a1.25,1.25,0,0,0-1.8,0l-94,94.07a1.23,1.23,0,0,0-.34.85,1.2,1.2,0,0,0,.34.84l7.22,7.22-4-8.61L199,172.74,212.2,186,181,217.13a1.27,1.27,0,0,0,0,1.75l19.9,19.9a1.23,1.23,0,0,0,1.8,0Z"/><path class="cls-1" d="M93.78,215a7.72,7.72,0,0,0,5.43-2.25l19.4-19.41a7.67,7.67,0,0,0,0-10.85L83,146.93a6,6,0,0,0-.93-.71l-9.7-5-2.63-2.64a3.88,3.88,0,0,0-5.43,0l-19.9,19.9a3.9,3.9,0,0,0-1.15,2.69,3.84,3.84,0,0,0,1.09,2.69L47,166.45l5,9.7a3.71,3.71,0,0,0,.71.93L88.3,212.66A7.49,7.49,0,0,0,93.78,215ZM53.6,162.5a4,4,0,0,0-.71-.93l-.33-.33L67,146.77l.33.33a6,6,0,0,0,.93.71l9.7,5L113.13,188,93.73,207.4,58.59,172.26Z"/><path class="cls-1" d="M93.78,217.62a10.15,10.15,0,0,1-7.35-3.15L50.88,178.92a6.29,6.29,0,0,1-1.2-1.61L44.84,168l-2.35-2.34a6.4,6.4,0,0,1,.06-9.06l19.9-19.9a6.46,6.46,0,0,1,9.11,0l2.34,2.35,9.59,5a8.75,8.75,0,0,1,1.33,1l35.63,35.58a10.28,10.28,0,0,1,0,14.54l-19.4,19.4A10.39,10.39,0,0,1,93.78,217.62ZM67,140a1.22,1.22,0,0,0-.87.34l-19.9,19.9a1.28,1.28,0,0,0-.39.85,1.27,1.27,0,0,0,.33.85l3.1,3.27,5,9.7a1.6,1.6,0,0,0,.24.29l35.58,35.58a5.11,5.11,0,0,0,7.23.11l19.4-19.41a5.06,5.06,0,0,0,0-7.17L81.14,148.77a2.32,2.32,0,0,0-.4-.3L70.51,143l-2.64-2.63A1.22,1.22,0,0,0,67,140Zm26.73,71L56.27,173.44l-5-9.76a1.86,1.86,0,0,0-.23-.27l-2.17-2.17L67,143.09l2.17,2.17a3,3,0,0,0,.4.3L79.83,151l37,37Zm-33-40.37,33,33L109.45,188l-33-33-9.18-4.77L56,161.48Z"/><path class="cls-1" d="M15.39,76.27c11.46,0,16.94,4.66,23.24,10,6.53,5.59,13.93,11.9,28.23,11.9S88.57,91.89,95.1,86.3c6.3-5.37,11.78-10,23.24-10,7,0,11.79,1.75,15.84,4.33l-19.57,48.57a12,12,0,0,0,.11,9.21,12.09,12.09,0,0,0,6.58,6.47l21.87,8.82a11.6,11.6,0,0,0,4.5.88,11.85,11.85,0,0,0,4.71-1,12,12,0,0,0,6.47-6.57l20.07-49.78c8.66-2,14.14-6.63,19.13-10.91,6.3-5.37,11.78-10,23.24-10s16.94,4.66,23.24,10c6.53,5.59,13.93,11.9,28.24,11.9a3.84,3.84,0,0,0,0-7.68c-11.46,0-16.94-4.66-23.25-10-6.52-5.59-13.92-11.9-28.23-11.9s-21.71,6.31-28.23,11.9c-3.34,2.85-6.47,5.54-10.36,7.4l1.2-3a36.6,36.6,0,0,0,1.92-21,28.72,28.72,0,0,1,1.54-16.61h0l10-24.78a3.84,3.84,0,0,0-2.13-5l-16.94-6.9a3.87,3.87,0,0,0-5,2.08l-10,24.78a29.17,29.17,0,0,1-10.42,13A37,37,0,0,0,139.61,66.9L137,73.31a35.56,35.56,0,0,0-18.74-4.82c-14.31,0-21.71,6.3-28.24,11.89-6.3,5.37-11.78,10-23.24,10s-16.94-4.66-23.24-10C37,74.79,29.64,68.49,15.33,68.49a3.8,3.8,0,0,0-3.83,3.83A4,4,0,0,0,15.39,76.27Zm136.28,67.87a4.45,4.45,0,0,1-2.36,2.41,4.39,4.39,0,0,1-3.34,0l-21.87-8.82a4.4,4.4,0,0,1-2.47-5.7l18.8-46.6,1,.88C148,92,155.4,98.25,169.71,98.25h.43Zm-4.88-74.28a29.2,29.2,0,0,1,10.42-13,37,37,0,0,0,13.21-16.44L179,19.2l9.81,3.95-8.55,21.16h0a36.76,36.76,0,0,0-1.92,21,28.72,28.72,0,0,1-1.53,16.61l-3.4,8.38c-1.15.11-2.3.17-3.62.17-11.46,0-16.94-4.66-23.24-10-1-.83-2-1.7-3-2.53Z"/><path class="cls-1" d="M147.67,157.15a14.27,14.27,0,0,1-5.48-1.07l-21.86-8.82a14.64,14.64,0,0,1-8-7.86,14.48,14.48,0,0,1-.13-11.21l18.73-46.47a26,26,0,0,0-12.59-2.85c-10.51,0-15.39,4.16-21.56,9.41-6.5,5.58-14.6,12.52-29.91,12.52S43.45,93.86,36.94,88.28c-6.16-5.25-11-9.41-21.55-9.41A6.52,6.52,0,0,1,8.9,72.32a6.44,6.44,0,0,1,6.43-6.44c15.32,0,23.42,7,29.93,12.52,6.16,5.26,11,9.41,21.55,9.41S82.2,83.66,88.37,78.4c6.5-5.57,14.6-12.52,29.92-12.52a39.28,39.28,0,0,1,17.41,3.77l1.5-3.73a39.74,39.74,0,0,1,14.14-17.61,26.49,26.49,0,0,0,9.49-11.83l10-24.77a6.46,6.46,0,0,1,8.45-3.52l16.93,6.9a6.3,6.3,0,0,1,3.51,3.44,6.49,6.49,0,0,1,.07,4.9l-10,24.81a26.29,26.29,0,0,0-1.4,15.11,39.36,39.36,0,0,1-.59,18.16c1.14-.91,2.28-1.88,3.43-2.87C197.87,72.94,206,66,221.29,66s23.42,7,29.93,12.53c6.16,5.25,11,9.4,21.55,9.4a6.44,6.44,0,0,1,0,12.88c-15.32,0-23.42-6.94-29.93-12.52-6.16-5.25-11-9.41-21.55-9.41S205.9,83,199.74,88.28c-4.86,4.16-10.34,8.86-18.91,11.14L161.27,148a14.78,14.78,0,0,1-13.6,9.19ZM118.34,73.67a30.79,30.79,0,0,1,17.24,4.73l1.82,1.16L117,130.14a9.32,9.32,0,0,0,.09,7.22,9.48,9.48,0,0,0,5.16,5.08l21.87,8.82a9.17,9.17,0,0,0,7.21-.09,9.45,9.45,0,0,0,5.08-5.16L177,95l1.33-.31c8.09-1.84,13.14-6.16,18-10.34,6.43-5.49,12.5-10.66,24.93-10.66s18.5,5.17,24.93,10.65S259.37,95.6,272.77,95.6a1.24,1.24,0,0,0,0-2.48c-12.43,0-18.5-5.17-24.94-10.65S234.69,71.2,221.29,71.2s-20.07,5.73-26.54,11.26c-3.57,3.05-6.79,5.8-10.93,7.78l-6,2.88,3.69-9.21a34.09,34.09,0,0,0,1.78-19.52,31.45,31.45,0,0,1,1.67-18.09l10-24.78a1.33,1.33,0,0,0,0-1,1.11,1.11,0,0,0-.65-.63l-17-6.92a1.33,1.33,0,0,0-1,0,1.29,1.29,0,0,0-.67.67l-10,24.76a31.72,31.72,0,0,1-11.34,14.16A34.46,34.46,0,0,0,142,67.88l-3.7,9.2-2.6-1.53a33.15,33.15,0,0,0-17.43-4.46c-13.4,0-20.08,5.73-26.54,11.27S79.24,93,66.81,93s-18.5-5.18-24.93-10.66S28.73,71.09,15.33,71.09a1.2,1.2,0,0,0-1.23,1.23,1.35,1.35,0,0,0,1.29,1.35c12.43,0,18.5,5.17,24.93,10.65S53.47,95.6,66.87,95.6,86.94,89.87,93.4,84.33,105.91,73.67,118.34,73.67Zm29.17,75.84A6.8,6.8,0,0,1,145,149l-21.88-8.83a6.94,6.94,0,0,1-3.81-3.7,7.07,7.07,0,0,1-.1-5.38L139.35,81.2l3.79,3.16c6.49,5.56,13.17,11.29,26.57,11.29H174l-19.91,49.46a7,7,0,0,1-3.71,3.81A7.68,7.68,0,0,1,147.51,149.51Zm-6-59.72L124,133.05a1.85,1.85,0,0,0,.06,1.4,1.75,1.75,0,0,0,1,.91l21.88,8.83a1.83,1.83,0,0,0,2.32-1h0l17.08-42.42C154.39,99.89,147.22,94.62,141.5,89.79Zm28.26,3.28c-12.42,0-18.5-5.17-24.93-10.65l-1-.86c-.63-.54-1.27-1.08-1.93-1.6l-1.54-1.21,4-9.88a31.72,31.72,0,0,1,11.34-14.14A34.55,34.55,0,0,0,168,39.43l9.52-23.61,14.64,5.89-9.53,23.58a34.19,34.19,0,0,0-1.78,19.5,31.39,31.39,0,0,1-1.67,18.1l-4,9.86-1.57.14A37.34,37.34,0,0,1,169.76,93.07ZM146.64,77.12l.56.48,1,.84c6.2,5.27,11.07,9.43,21.58,9.43.64,0,1.24,0,1.81-.05l2.8-6.88a26.28,26.28,0,0,0,1.39-15.11,39.38,39.38,0,0,1,2.06-22.49l7.57-18.75-5-2-7.58,18.8A39.69,39.69,0,0,1,158.69,59a26.54,26.54,0,0,0-9.49,11.83h0Z"/><path class="cls-1" d="M158.24,321a6.17,6.17,0,0,1-4.13-1.59l-53.36-48.15a6.18,6.18,0,1,1,8.28-9.18l48.89,44.12,49.21-51.6a6.18,6.18,0,1,1,8.94,8.53l-53.35,55.95A6.13,6.13,0,0,1,158.24,321Z"/></svg>