<?xml version="1.0" encoding="utf-8"?>
<!-- Generator: Adobe Illustrator 25.2.0, SVG Export Plug-In . SVG Version: 6.00 Build 0)  -->
<svg version="1.1" id="Layer_1" xmlns="http://www.w3.org/2000/svg" xmlns:xlink="http://www.w3.org/1999/xlink" x="0px" y="0px"
	 viewBox="0 0 432 432" style="enable-background:new 0 0 432 432;" xml:space="preserve">
<style type="text/css">
	.st0{fill:#203044;stroke:#203044;stroke-width:0.5;stroke-miterlimit:10;}
</style>
<path class="st0" d="M219.3,25.3C112.2,25.3,25,112.5,25,219.7C25,326.8,112.2,414,219.3,414c107.2,0,194.3-87.2,194.3-194.3
	C413.7,112.5,326.5,25.3,219.3,25.3z M212.3,90.2l15.3-15.3l58.8,58.8L271,149L212.3,90.2z M237.2,139.4l-9.6,9.6l-15.3-15.3
	l9.6-9.6L237.2,139.4z M276.8,99.8l-15.3-15.3l9.6-9.6l15.3,15.3L276.8,99.8z M105.8,83.7c5.7,5.7,10.2,12.7,12.8,20.6
	c0.6,1.8,1.1,3.5,1.5,5.3c1,4.5,5.4,7.3,9.9,6.5c12-2.2,23.5,5.1,26.8,16.9c3.1,11.3-3,23.5-13.8,27.9c-5.2,2.1-10.8,2.3-16.1,0.5
	c-9.7-3.2-20.8-2.4-31.3,2.2c-1.2,0.5-2.4,1-3.6,1.4c-12.8,4.3-27.2,1.8-38.9-6.6C63.9,129.1,82.3,103.4,105.8,83.7z M219.3,396.9
	c-58.1,0-109.7-28.1-142-71.3c6-6.7,13.5-12.2,22.1-15.9c24-10.2,51.3-4.5,66.2,13.8c1.8,2.3,4.7,3.5,7.6,3.1
	c20.2-2.3,40.5,10.4,49.2,30.9c2.8,6.5,9.6,10.6,16.7,10.1c6.8-0.5,13.3,2,18.1,6.8c3.1,3.1,6.7,8.4,7.1,16.6
	C250,394.8,234.9,396.9,219.3,396.9z M281.1,385.7c-1.3-9.1-5.3-17.2-11.7-23.5c-8.3-8.2-19.7-12.5-31.1-11.5
	c-11-25.9-36.1-42.4-62.3-41.6c-20.2-21.5-53.7-27.9-83.2-15.3c-9.5,4.1-18.1,9.8-25.3,17c-16.1-26.6-25.3-57.8-25.3-91.2
	c0-15.2,1.9-30,5.6-44.2c9.7,5.8,20.5,8.8,31.4,8.8c6.2,0,12.3-1,18.3-3c1.8-0.6,3.5-1.3,5.1-2c6.6-2.9,13.3-3.5,18.9-1.6
	c9.1,3,19,2.7,27.9-0.9c18.8-7.5,29.4-28.8,24-48.3c-4.9-17.8-20.7-29.7-38.5-29.9c-3.2-9.6-8.5-18.2-15.2-25.4
	c28.4-19.4,62.7-30.8,99.7-30.8c23.3,0,45.5,4.6,65.9,12.7c-1.8,1.5-3.5,3.1-5,4.7c-5.6-4.7-14-4.5-19.2,0.8l-11.6,11.6l-11.6-11.6
	c-2.7-2.7-6.3-4.2-10.1-4.2c0,0,0,0,0,0c-3.8,0-7.4,1.5-10.1,4.2l-19.4,19.4c-5.6,5.6-5.6,14.6,0,20.2l11.6,11.6l-11.6,11.6
	c-5.6,5.6-5.6,14.6,0,20.2l19.4,19.4c2.7,2.7,6.3,4.2,10.1,4.2c0,0,0,0,0,0c3.8,0,7.4-1.5,10.1-4.2l11.6-11.6l11.6,11.6
	c2.8,2.8,6.4,4.2,10.1,4.2c3.7,0,7.3-1.4,10.1-4.2l6.2-6.2c3.4,2.9,7,5.6,11,7.9c7.4,4.4,12.7,10.6,14.7,17.4
	c6.1,20.2,21.3,35.6,40.5,41.2c1.8,0.5,3.6,0.9,5.4,1.3c7.1,1.4,12.9,4.7,16.4,9.4c4.8,6.4,11.4,11.1,18.8,13.7
	C384,311.5,339.9,363.8,281.1,385.7z M389.1,223.9c-6.1-8.2-15.7-13.9-26.9-16c-1.3-0.2-2.5-0.5-3.8-0.9
	c-13.7-4-24.5-15.1-28.9-29.8c-3.3-10.9-11.3-20.5-22.4-27.1c-2.7-1.6-5.2-3.4-7.6-5.3l1-1c5.6-5.6,5.6-14.6,0-20.2L288.9,112
	l11.6-11.6c5.6-5.6,5.6-14.6,0-20.2l-8.1-8.1c3.1-3.2,6.6-6.1,10.6-8.5c55.6,29.9,93.5,88.7,93.5,156.1c0,3.5-0.1,7-0.3,10.4
	C393.5,228.6,391.1,226.5,389.1,223.9z M296.4,218.3c-1.6,2.6-4.4,4-7.2,4c-1.6,0-3.2-0.4-4.6-1.3c-11.7-7.4-26.4-7.6-26.6-7.6
	c-2.9,0-5.6-1.5-7.2-3.9c-1.6-2.4-1.8-5.5-0.6-8.1c9.6-21.4,37.2-23.4,38.4-23.4c4.8-0.3,8.8,3.3,9.1,8c0.3,4.7-3.3,8.8-8,9.1
	c-0.2,0-7.3,0.6-13.9,3.9c5.7,1.5,12,3.9,18,7.7C297.8,209,299,214.3,296.4,218.3z M180.6,213.4c-0.1,0-14.8,0.2-26.5,7.6
	c-1.4,0.9-3,1.3-4.6,1.3c-2.8,0-5.6-1.4-7.3-4c-2.5-4-1.3-9.3,2.7-11.8c5.9-3.8,12.3-6.1,18-7.7c-6.7-3.3-13.8-3.9-13.9-3.9
	c-4.7-0.3-8.3-4.4-8-9.1c0.3-4.7,4.4-8.3,9.1-8c1.2,0.1,28.8,2,38.4,23.4c1.2,2.7,1,5.7-0.6,8.2
	C186.2,211.9,183.5,213.4,180.6,213.4z M219.3,226.6c-26.5,0-48.1,21.6-48.1,48.1c0,4.7,3.8,8.6,8.6,8.6h79c4.7,0,8.6-3.8,8.6-8.6
	C267.4,248.1,245.8,226.6,219.3,226.6z M189.6,266.1c3.7-12.9,15.6-22.3,29.7-22.3c14.1,0,26,9.5,29.7,22.3H189.6z M81.8,247.2v16.7
	c0,4.7-3.8,8.6-8.6,8.6c-4.7,0-8.6-3.8-8.6-8.6v-16.7c0-4.7,3.8-8.6,8.6-8.6C77.9,238.6,81.8,242.5,81.8,247.2z M105.1,246.5v16.7
	c0,4.7-3.8,8.6-8.6,8.6S88,268,88,263.2v-16.7c0-4.7,3.8-8.6,8.6-8.6S105.1,241.8,105.1,246.5z M315.3,305v16.7
	c0,4.7-3.8,8.6-8.6,8.6s-8.6-3.8-8.6-8.6V305c0-4.7,3.8-8.6,8.6-8.6S315.3,300.3,315.3,305z M338.6,304.3V321c0,4.7-3.8,8.6-8.6,8.6
	s-8.6-3.8-8.6-8.6v-16.7c0-4.7,3.8-8.6,8.6-8.6S338.6,299.6,338.6,304.3z"/>
</svg>
