<?xml version="1.0" encoding="utf-8"?>
<!-- Generator: Adobe Illustrator 25.2.0, SVG Export Plug-In . SVG Version: 6.00 Build 0)  -->
<svg version="1.1" id="Layer_1" xmlns="http://www.w3.org/2000/svg" xmlns:xlink="http://www.w3.org/1999/xlink" x="0px" y="0px"
	 viewBox="0 0 432 432" style="enable-background:new 0 0 432 432;" xml:space="preserve">
<style type="text/css">
	.st0{fill:#203044;}
</style>
<g transform="translate(0,-952.36218)">
	<g>
		<path class="st0" d="M220.6,1000.4c-10,0-18.6,4-24.9,9.1s-10.9,11.2-15.2,16.5c-4.3,5.4-8.1,10-12,13c-3.8,2.9-7.2,4.5-12.3,4.5
			c-0.1,0-0.2,0-0.3,0c-12.6-0.5-18.4-6.6-26.6-15.3c-8.3-8.9-19-21.3-37.4-22.4c-0.2,0-0.4,0-0.7,0c-17.9,0-29.5,10.2-37.4,18.9
			c-7.9,8.6-13.4,15.6-25.1,19.2c-5.7,1.8-8.9,7.8-7.2,13.6c1.8,5.7,7.8,8.9,13.6,7.2l0,0c17.7-5.4,27.4-17.3,34.7-25.3
			c7.2-7.9,10.6-11.9,21.2-12c0.1,0,0.1,0,0.2,0c8.9,0.8,13.9,6.6,22.4,15.7c8.8,9.3,21.6,21.4,41.9,22.1c0.1,0,0.2,0,0.3,0
			c10.3,0,19.2-4,25.8-9.1c6.6-5.1,11.3-11.2,15.7-16.7c4.3-5.4,8.3-10.2,12-13.1s6.5-4.2,11.3-4.2c4.7,0,7.6,1.2,11.3,4.2
			c3.7,3,7.6,7.7,12,13.1c4.3,5.4,9,11.6,15.7,16.7c6.6,5.1,15.5,9.1,25.8,9.1c0.1,0,0.2,0,0.3,0c20.4-0.7,33.2-12.8,41.9-22.1
			c8.5-9.1,13.5-14.8,22.4-15.7c0.1,0,0.1,0,0.2,0c10.6,0.1,14,4,21.2,12c7.3,8,17,19.8,34.7,25.3c5.7,1.8,11.8-1.4,13.6-7.2
			c1.8-5.7-1.4-11.8-7.2-13.6c0,0,0,0,0,0c-11.7-3.6-17.2-10.6-25.1-19.2c-7.9-8.6-19.4-18.9-37.4-18.9c-0.2,0-0.4,0-0.7,0
			c-18.3,1.1-29.1,13.6-37.4,22.4c-8.2,8.8-14,14.8-26.6,15.3c-0.1,0-0.2,0-0.3,0c-5.1-0.1-8.5-1.6-12.3-4.5c-3.8-3-7.7-7.6-12-13
			c-4.3-5.4-8.8-11.4-15.2-16.5C239.2,1004.3,230.6,1000.4,220.6,1000.4z M240.3,1097.4c-30.5,0-55.3,18.3-72.2,35.5
			s-26.8,34.4-26.8,34.4c-2,3.4-2,7.6,0,10.9c0,0,9.8,17.1,26.8,34.4s41.7,35.7,72.2,35.7c43.4,0,74.9-22.6,99.2-47.2
			c4-4,7.1-7.9,10.8-12c11.8,13.8,23.6,26.6,36.7,35.5c4.5,3.9,11.3,3.3,15.2-1.2c3.9-4.5,3.3-11.3-1.2-15.2
			c-0.6-0.5-1.2-0.9-1.9-1.3c-10-6.8-21.5-19.8-34-34.2c12.5-14.4,24-27.5,34-34.4c5.2-2.8,7.2-9.4,4.3-14.6
			c-2.8-5.2-9.4-7.2-14.6-4.3c-0.7,0.4-1.3,0.8-1.9,1.3c-13.1,8.9-24.8,22-36.5,35.7c-3.7-4.1-6.9-7.9-10.9-12
			C315.1,1120,283.7,1097.4,240.3,1097.4L240.3,1097.4z M240.3,1118.9c36.1,0,61.3,18,83.9,40.8c4.2,4.2,7.7,8.7,11.6,13.1
			c-3.9,4.4-7.5,8.9-11.6,13.1c-22.5,22.7-47.8,40.8-83.9,40.8c-21.6,0-41.9-14-56.7-29.1c-10.5-10.7-16.7-19.4-20.2-24.8
			c3.4-5.3,9.6-14.1,20.2-24.9C198.4,1132.8,218.6,1118.9,240.3,1118.9L240.3,1118.9z M53.5,1199.8c-8.9,0-16.2,7.2-16.2,16.2
			c0,8.9,7.2,16.2,16.2,16.2c8.9,0,16.2-7.2,16.2-16.2C69.7,1207,62.5,1199.8,53.5,1199.8z M64.3,1259.1c-6,0-10.8,4.8-10.8,10.8
			c0,6,4.8,10.8,10.8,10.8c6,0,10.8-4.8,10.8-10.8C75.1,1263.9,70.3,1259.1,64.3,1259.1z M136.6,1259.1c-31.5,0-49,32-49,32
			c-2.1,3.5-2.1,7.8,0,11.3c0,0,17.5,32.2,49,32.2c21.1,0,36.8-10.7,48.2-21.4c0.4-0.4,0.5-0.5,0.8-0.8c4,4.2,8.1,8.3,13.1,11.5
			c4.8,3.6,11.5,2.6,15.1-2.2c3.6-4.8,2.6-11.5-2.2-15.1c-0.4-0.3-0.9-0.6-1.4-0.9c-2-1.3-6.2-6-8.9-8.8c2.7-2.8,6.9-7.7,8.9-8.9
			c5.3-2.8,7.3-9.3,4.5-14.6c-2.8-5.3-9.3-7.3-14.6-4.5c-0.5,0.3-1,0.6-1.4,0.9c-5,3.2-9.1,7.3-13.1,11.5c-0.4-0.4-0.5-0.5-0.8-0.8
			C173.4,1269.6,157.7,1259.1,136.6,1259.1z M136.6,1280.6c14.2,0,23.9,6.4,33.3,15.3c0.3,0.2,0.4,0.6,0.7,0.8
			c-0.2,0.2-0.4,0.5-0.7,0.7c-9.5,9-19.1,15.5-33.3,15.5c-11,0-20.5-10-25.8-16.2C116,1290.6,125.5,1280.6,136.6,1280.6z"/>
	</g>
</g>
</svg>
