<svg id="Layer_1" data-name="Layer 1" xmlns="http://www.w3.org/2000/svg" viewBox="0 0 100 100.37"><defs><style>.cls-1{fill:#22487f;fill-rule:evenodd;}</style></defs><path class="cls-1" d="M28.77,17.17c5,1.66,10,3.41,15.07,4.93s10.11,3.47,15.3,4c6.45.66,12.55-4.05,14.61-10.27,1.06-3.22,2.69-2.23,4.53-1.06,7.34,4.67,12,11.56,14.42,19.62,1.57,5.11,1.79,10.68,2.28,16.07.27,3-1.71,4.84-4.28,6.18-14.59,7.59-27.94,4.73-41.07-4a138.13,138.13,0,0,0-22.7-12.42c-4-1.7-9.14-1.07-13.77-1.1-5.12,0-6.92-1.9-4.9-6.46C12.41,23.23,16.86,18.05,28.77,17.17Z"/><path class="cls-1" d="M5,54.28c-.06-7.91.19-7.67,5.82-9,11.54-2.72,20.91,1.75,30,8C47.48,57.91,54,62.87,62,65.1a41.25,41.25,0,0,0,26.34-1c1.23-.46,2.71-.25,4.08-.36a19.32,19.32,0,0,1-.66,4.08C86.43,81.51,70.55,84.23,57.4,78.46a89.77,89.77,0,0,0-11.9-4.62,15.88,15.88,0,0,0-19.26,9c-1.49,3.38-2.82,3-5.26,1.25C10.23,76.11,6.22,64.85,5,54.28Z"/><path class="cls-1" d="M72.87,90c-5.53,1.72-10.06,3.43-14.72,4.51A34.79,34.79,0,0,1,35.09,92c-4.63-2.16-5.16-7-1.3-10.34s8.23-3.48,12.46-1.9c7.84,2.93,15.17,7.26,23.8,7.83C70.64,87.62,71.17,88.49,72.87,90Z"/><path class="cls-1" d="M29,9.38c4.19-1.36,8.3-3.2,12.6-4,7.15-1.27,14.36-1.31,21.35,1.46,3.16,1.25,5.53,3.19,5.36,6.67a6.54,6.54,0,0,1-6,6.11,26.62,26.62,0,0,1-10.6-.59c-7-2-13.81-4.82-20.69-7.3-.59-.22-1.14-.52-1.71-.78C29.16,10.45,29.06,9.92,29,9.38Z"/></svg>