<svg id="Layer_1" data-name="Layer 1" xmlns="http://www.w3.org/2000/svg" viewBox="0 0 249 158"><defs><style>.cls-1,.cls-2,.cls-5{fill:#22487f;}.cls-1{stroke:#22487f;stroke-miterlimit:10;}.cls-2{font-size:48px;font-family:MyriadPro-Black, Myriad Pro;font-weight:800;}.cls-3{letter-spacing:0.01em;}.cls-4{letter-spacing:-0.03em;}</style></defs><path class="cls-1" d="M163.93,93.72v16.5c0,4.55,3.35,8.25,7.49,8.25h40.45a1.42,1.42,0,0,0,.83-.29l13.11-9.61h1.05a1.58,1.58,0,0,0,1.5,1.65h6a1.58,1.58,0,0,0,1.5-1.65V95.37a1.57,1.57,0,0,0-1.5-1.65h-6a1.57,1.57,0,0,0-1.5,1.65h-1.05L212.7,85.75a1.41,1.41,0,0,0-.83-.28H171.42C167.28,85.47,163.93,89.16,163.93,93.72Zm47.49-5,13.12,9.61a1.39,1.39,0,0,0,.82.29h1.5v6.6h-1.5a1.38,1.38,0,0,0-.82.28l-13.12,9.62h-40a4.75,4.75,0,0,1-4.5-5v-1.65a7,7,0,0,0,4.5,1.65v-3.3a5,5,0,0,1,0-9.9v-3.3a7,7,0,0,0-4.5,1.65V93.72a4.74,4.74,0,0,1,4.5-5Z"/><text class="cls-2" transform="translate(9.1 77.96)">P<tspan class="cls-3" x="28.9" y="0">L</tspan><tspan x="54.58" y="0">ASTIC</tspan><tspan x="0" y="40">BE</tspan><tspan class="cls-4" x="56.78" y="40">A</tspan><tspan x="87.79" y="40">CH</tspan></text><path class="cls-5" d="M229.26,55.81a19.46,19.46,0,0,1,6.21-1.29.84.84,0,0,0,.32-1.58,17.47,17.47,0,0,0-13.33-.69,15.32,15.32,0,0,0-9.54-6.76.81.81,0,0,0-.78,1.34,19,19,0,0,1,3,4.45c-5-1.49-11.71.23-16.2,4.9a.84.84,0,0,0,.69,1.44,30.61,30.61,0,0,1,10.6-.28c-4.4,1.43-7.91,6.11-8.65,11.8a.8.8,0,0,0,1.38.65c4.22-4.72,8.94-6.25,13.1-5.09a80.41,80.41,0,0,0-6.66,23.24,1.37,1.37,0,0,0,1.34,1.53h5.46A1.35,1.35,0,0,0,217.51,88a48.65,48.65,0,0,1,3.24-21.52c4,1,7,5,8.1,11.34a.82.82,0,0,0,1.57.18c2.18-4.91,1.76-10.6-1.25-14.3A26.69,26.69,0,0,1,238,70.3a.82.82,0,0,0,1.43-.65C238.71,63.08,234.26,57.57,229.26,55.81Z"/></svg>