<svg id="Layer_1" data-name="Layer 1" xmlns="http://www.w3.org/2000/svg" viewBox="0 0 251 101"><defs><style>.cls-1,.cls-2,.cls-5{fill:#fff;}.cls-1{stroke:#fff;stroke-miterlimit:10;}.cls-2{font-size:48px;font-family:MyriadPro-Black, Myriad Pro;font-weight:800;}.cls-3{letter-spacing:0.01em;}.cls-4{letter-spacing:-0.03em;}</style></defs><path class="cls-1" d="M163.73,65.1V81.6c0,4.55,3.35,8.25,7.49,8.25h40.45a1.48,1.48,0,0,0,.83-.28L225.61,80h1a1.58,1.58,0,0,0,1.49,1.65h6a1.58,1.58,0,0,0,1.5-1.65V66.75a1.57,1.57,0,0,0-1.5-1.65h-6a1.57,1.57,0,0,0-1.49,1.65h-1L212.5,57.13a1.41,1.41,0,0,0-.83-.28H171.22C167.08,56.85,163.73,60.54,163.73,65.1Zm47.49-4.95,13.11,9.62a1.48,1.48,0,0,0,.83.28h1.5v6.6h-1.5a1.41,1.41,0,0,0-.83.28l-13.11,9.62h-40a4.75,4.75,0,0,1-4.5-5V80a7,7,0,0,0,4.5,1.65V78.3a5,5,0,0,1,0-9.9V65.1a7,7,0,0,0-4.5,1.65V65.1a4.74,4.74,0,0,1,4.5-4.95Z"/><text class="cls-2" transform="translate(8.9 49.34)">P<tspan class="cls-3" x="28.9" y="0">L</tspan><tspan x="54.58" y="0">ASTIC</tspan><tspan x="0" y="40">BE</tspan><tspan class="cls-4" x="56.78" y="40">A</tspan><tspan x="87.79" y="40">CH</tspan></text><path class="cls-5" d="M229.06,27.19a19.46,19.46,0,0,1,6.21-1.29.84.84,0,0,0,.32-1.58,17.47,17.47,0,0,0-13.33-.69,15.35,15.35,0,0,0-9.54-6.76.81.81,0,0,0-.78,1.34,19,19,0,0,1,3,4.45c-5.05-1.49-11.71.23-16.2,4.9a.84.84,0,0,0,.69,1.44,30.61,30.61,0,0,1,10.6-.28c-4.4,1.43-7.91,6.11-8.65,11.8a.8.8,0,0,0,1.38.65c4.22-4.72,8.94-6.25,13.1-5.09a80.41,80.41,0,0,0-6.66,23.24,1.37,1.37,0,0,0,1.34,1.53H216a1.35,1.35,0,0,0,1.35-1.44,48.65,48.65,0,0,1,3.24-21.52c4,1,7,5,8.1,11.34a.82.82,0,0,0,1.57.18c2.18-4.9,1.76-10.6-1.25-14.3a26.69,26.69,0,0,1,8.8,6.57A.82.82,0,0,0,239.2,41C238.51,34.46,234.06,29,229.06,27.19Z"/></svg>