<svg id="Layer_1" data-name="Layer 1" xmlns="http://www.w3.org/2000/svg" viewBox="0 0 305 181"><defs><style>.cls-1{fill:#737373;}.cls-2{fill:#606060;}.cls-3{fill:#878787;}.cls-4{fill:#bababa;}</style></defs><path class="cls-1" d="M113.2,88.74l-1.62,4.57h-.13a32.13,32.13,0,0,0-1.57-4.48L101.24,67.1H92.77v34.63h5.6V80.36c0-1.34,0-2.86-.05-4.75,0-.94-.13-1.65-.17-2.19h.13a20.51,20.51,0,0,0,.81,3l10.39,25.26h3.94l10.3-25.49a24.83,24.83,0,0,0,.67-2.73h.14c-.14,2.55-.23,4.84-.27,6.23v21.94h6V67h-8.16Zm22.66-12h5.82v24.81h-5.82Zm3-10.48a3.52,3.52,0,0,0-2.47,1,3.31,3.31,0,0,0,0,4.8,3.49,3.49,0,0,0,2.47.94,3.59,3.59,0,0,0,2.46-.94,3.18,3.18,0,0,0,1-2.38,3.33,3.33,0,0,0-1-2.42,3.28,3.28,0,0,0-2.46-1m23.51,10.25a16.44,16.44,0,0,0-3.27-.35A14.06,14.06,0,0,0,152,77.94a11.7,11.7,0,0,0-4.66,4.8,15.15,15.15,0,0,0-1.62,7.16,13.31,13.31,0,0,0,1.57,6.41,10.77,10.77,0,0,0,4.39,4.43,13,13,0,0,0,6.41,1.57,14,14,0,0,0,7-1.66l0,0V95.23l-.22.18a9.9,9.9,0,0,1-2.82,1.48,8.59,8.59,0,0,1-2.78.54,6.85,6.85,0,0,1-5.46-2.15,8.26,8.26,0,0,1-2-5.87,8.48,8.48,0,0,1,2.06-6,7.2,7.2,0,0,1,5.47-2.24A9.56,9.56,0,0,1,164.93,83l.22.18V77.5l0,0a14,14,0,0,0-2.78-.9m19.22-.17a6.13,6.13,0,0,0-3.94,1.38,8.31,8.31,0,0,0-2.24,3.36h-.05V76.78H169.5v24.81h5.82V88.92a8.52,8.52,0,0,1,1.44-5.24,4.47,4.47,0,0,1,3.76-2,16.69,16.69,0,0,1,1.75.22,4.43,4.43,0,0,1,1.38.59l.23.18V76.82l-.14,0a4.4,4.4,0,0,0-2.19-.4m15.85-.14c-4.07,0-7.34,1.21-9.63,3.58s-3.44,5.65-3.44,9.77a12.76,12.76,0,0,0,3.4,9.27,12.34,12.34,0,0,0,9.09,3.41c4,0,7.17-1.21,9.45-3.63S209.72,93,209.72,89s-1.07-7.08-3.27-9.36-5.19-3.41-9-3.41m4.66,19.08a5.85,5.85,0,0,1-4.88,2.06,6.13,6.13,0,0,1-5-2.15,8.83,8.83,0,0,1-1.79-6,9.45,9.45,0,0,1,1.79-6.1,6.18,6.18,0,0,1,5-2.15A6,6,0,0,1,202,83.09a9.17,9.17,0,0,1,1.8,6c-.09,2.69-.59,4.79-1.71,6.18m20.65-8.24a13.82,13.82,0,0,1-3.54-1.84,2.55,2.55,0,0,1-.67-1.88,2.09,2.09,0,0,1,.94-1.79A4.32,4.32,0,0,1,222,80.9a11.6,11.6,0,0,1,3,.45,7.65,7.65,0,0,1,2.59,1.21l.23.18V77.27l-.14,0a15.44,15.44,0,0,0-2.64-.76,17.81,17.81,0,0,0-2.86-.27,10.38,10.38,0,0,0-6.86,2.15,6.61,6.61,0,0,0-2.64,5.46,7.16,7.16,0,0,0,.58,3,6.91,6.91,0,0,0,1.79,2.33,15.81,15.81,0,0,0,3.59,2c1.34.58,2.37,1,3,1.39A6,6,0,0,1,223,93.67a2.45,2.45,0,0,1,.36,1.38c0,1.66-1.25,2.47-3.81,2.47a10.13,10.13,0,0,1-3.22-.58A12.72,12.72,0,0,1,213,95.28l-.23-.18v5.69l.14,0a17.33,17.33,0,0,0,3.13,1,20.53,20.53,0,0,0,3.36.4c3,0,5.47-.67,7.21-2.15a6.84,6.84,0,0,0,2.74-5.64A6.27,6.27,0,0,0,228,90.17a18.37,18.37,0,0,0-5.24-3.09m22-10.84c-4.08,0-7.35,1.21-9.63,3.58s-3.45,5.65-3.45,9.77a12.76,12.76,0,0,0,3.41,9.27,12.31,12.31,0,0,0,9.09,3.41c4,0,7.16-1.21,9.45-3.63S257.07,93,257.07,89s-1.08-7.08-3.27-9.36-5.2-3.41-9.05-3.41m4.61,19.08a5.85,5.85,0,0,1-4.88,2.06,6.06,6.06,0,0,1-5-2.15,8.88,8.88,0,0,1-1.79-6,9.45,9.45,0,0,1,1.79-6.1,6.18,6.18,0,0,1,5-2.15,6,6,0,0,1,4.83,2.06,9.17,9.17,0,0,1,1.8,6,9.76,9.76,0,0,1-1.71,6.18M288.2,81.57V76.78h-5.87V69.43l-.18,0-5.55,1.65-.14.05v5.6h-8.78V73.64a4.91,4.91,0,0,1,1-3.27,3.5,3.5,0,0,1,2.73-1.07,6.58,6.58,0,0,1,2.6.58l.22.13V65l-.13,0a11.16,11.16,0,0,0-7.93.63A7.73,7.73,0,0,0,263,68.72a9.15,9.15,0,0,0-1.16,4.61v3.45h-4.08v4.75h4.08v20.06h5.86v-20h8.78V94.34c0,5.24,2.47,7.88,7.39,7.88a14.81,14.81,0,0,0,2.47-.27,7.88,7.88,0,0,0,1.83-.58l.05-.05V96.53l-.23.18a3.71,3.71,0,0,1-1.2.54,4.33,4.33,0,0,1-1.17.18,3.1,3.1,0,0,1-2.55-.94,4.84,4.84,0,0,1-.81-3.18V81.57Z"/><path class="cls-2" d="M17.7,55.46H45.16V82.92H17.7Z"/><path class="cls-3" d="M48,55.46H75.48V82.92H48Z"/><path class="cls-3" d="M17.7,85.78H45.16v27.46H17.7Z"/><path class="cls-4" d="M48,85.78H75.48v27.46H48Z"/></svg>