<svg id="Layer_1" data-name="Layer 1" xmlns="http://www.w3.org/2000/svg" viewBox="0 0 248 181"><defs><style>.cls-1{fill:#8c8c8c;}.cls-2{fill:#fff;}</style></defs><path class="cls-1" d="M108.37,33.52a32.55,32.55,0,0,1,23.56-10.11,32.89,32.89,0,0,1,28.65,17A39.63,39.63,0,0,1,176.78,37a40.39,40.39,0,1,1-7.89,80,29.27,29.27,0,0,1-38.36,12,33.39,33.39,0,0,1-62.08-1.51,30.32,30.32,0,0,1-6.37.67A31.39,31.39,0,0,1,46.58,69.7a36.07,36.07,0,0,1,61.79-36.18"/><path class="cls-2" d="M58,86.76c-.12.31,0,.37.08.42a9,9,0,0,0,1.06.64,11.27,11.27,0,0,0,5.56,1.3c3.81,0,6.17-2,6.17-5.29v-.06c0-3-2.67-4.11-5.17-4.9l-.33-.11c-1.89-.61-3.52-1.14-3.52-2.38v-.07c0-1.06,1-1.85,2.43-1.85A11,11,0,0,1,69.1,75.7s.37.24.5-.12c.08-.19.71-1.9.78-2.08a.36.36,0,0,0-.19-.43,10.8,10.8,0,0,0-5.45-1.47h-.38c-3.49,0-5.93,2.1-5.93,5.12v.06c0,3.19,2.69,4.22,5.21,4.94l.4.12c1.83.57,3.41,1.05,3.41,2.34v.07c0,1.18-1,2-2.68,2a9,9,0,0,1-4.91-1.41c-.26-.16-.42-.27-.63-.39a.3.3,0,0,0-.5.17L58,86.76Z"/><path class="cls-2" d="M113.76,86.76c-.12.31,0,.37.08.42a9,9,0,0,0,1.06.64,11.24,11.24,0,0,0,5.55,1.3c3.81,0,6.18-2,6.18-5.29v-.06c0-3-2.67-4.11-5.18-4.9l-.32-.11c-1.89-.61-3.52-1.14-3.52-2.38v-.07c0-1.06,1-1.85,2.43-1.85a11,11,0,0,1,4.84,1.24s.37.24.5-.12c.08-.19.71-1.9.78-2.08a.36.36,0,0,0-.19-.43,10.81,10.81,0,0,0-5.46-1.47h-.38c-3.48,0-5.92,2.1-5.92,5.12v.06c0,3.19,2.69,4.22,5.2,4.94l.41.12c1.83.57,3.41,1.05,3.41,2.34v.07c0,1.18-1,2-2.68,2a9,9,0,0,1-4.91-1.41l-.63-.39a.32.32,0,0,0-.5.17l-.75,2.08Z"/><path class="cls-2" d="M151.84,80.37a7.92,7.92,0,0,1-1,4.33,3.44,3.44,0,0,1-3.1,1.51,3.36,3.36,0,0,1-3.08-1.51,7.92,7.92,0,0,1-1-4.33,7.79,7.79,0,0,1,1-4.3,3.38,3.38,0,0,1,3.08-1.5,3.43,3.43,0,0,1,3.1,1.5,7.79,7.79,0,0,1,1,4.3M155,77a7.83,7.83,0,0,0-1.45-2.76,7.08,7.08,0,0,0-2.44-1.86,8.89,8.89,0,0,0-6.82,0,7.21,7.21,0,0,0-2.45,1.86A7.81,7.81,0,0,0,140.42,77a12.68,12.68,0,0,0,0,6.84,7.59,7.59,0,0,0,1.45,2.76,6.93,6.93,0,0,0,2.44,1.85,9.14,9.14,0,0,0,6.82,0,6.93,6.93,0,0,0,2.44-1.85A7.66,7.66,0,0,0,155,83.79,12.68,12.68,0,0,0,155,77"/><path class="cls-2" d="M181.13,85.71a.3.3,0,0,0-.4-.19,7,7,0,0,1-1.48.42,10.53,10.53,0,0,1-1.74.13,4.86,4.86,0,0,1-3.64-1.36,6.1,6.1,0,0,1-1.37-4.35,6.78,6.78,0,0,1,1.22-4.19,4.15,4.15,0,0,1,3.53-1.55,10.61,10.61,0,0,1,3.36.48s.25.11.37-.22c.28-.77.49-1.33.78-2.17a.29.29,0,0,0-.19-.38,12.77,12.77,0,0,0-2.12-.53,15.5,15.5,0,0,0-2.39-.16,8.58,8.58,0,0,0-3.55.68A7.43,7.43,0,0,0,171,74.17a8,8,0,0,0-1.55,2.77,11.09,11.09,0,0,0-.51,3.42A9.17,9.17,0,0,0,171,86.69c1.41,1.57,3.52,2.36,6.28,2.36a13,13,0,0,0,4.5-.8.29.29,0,0,0,.13-.38l-.78-2.16Z"/><path class="cls-2" d="M186.7,78.61a6.14,6.14,0,0,1,.87-2.54,3.42,3.42,0,0,1,3.08-1.56,3.32,3.32,0,0,1,3,1.56,5.27,5.27,0,0,1,.72,2.54Zm10.71-2.26A6.69,6.69,0,0,0,196,73.84,6.27,6.27,0,0,0,194,72.28a7.75,7.75,0,0,0-3.08-.63,8.48,8.48,0,0,0-3.55.69,6.94,6.94,0,0,0-2.48,1.9A7.51,7.51,0,0,0,183.41,77a11.92,11.92,0,0,0-.47,3.44,11.33,11.33,0,0,0,.49,3.43,6.9,6.9,0,0,0,4.26,4.53,10.89,10.89,0,0,0,3.91.64A11.37,11.37,0,0,0,197,88c.12-.07.24-.18.09-.52l-.7-2a.31.31,0,0,0-.41-.18,10.39,10.39,0,0,1-4.41.79,4.4,4.4,0,0,1-4.94-4.85h10.76a.32.32,0,0,0,.32-.28,11.58,11.58,0,0,0-.32-4.64Z"/><path class="cls-2" d="M100.48,78.61a6.14,6.14,0,0,1,.87-2.54,3.42,3.42,0,0,1,3.08-1.56,3.32,3.32,0,0,1,3,1.56,5.27,5.27,0,0,1,.72,2.54Zm10.7-2.26a6.69,6.69,0,0,0-1.37-2.51,6.27,6.27,0,0,0-2-1.56,7.75,7.75,0,0,0-3.08-.63,8.48,8.48,0,0,0-3.55.69,6.94,6.94,0,0,0-2.48,1.9A7.51,7.51,0,0,0,97.19,77a12.27,12.27,0,0,0-.47,3.44,11.65,11.65,0,0,0,.48,3.43,7.18,7.18,0,0,0,1.57,2.74,7,7,0,0,0,2.7,1.79,10.85,10.85,0,0,0,3.91.64A11.37,11.37,0,0,0,110.8,88c.12-.07.23-.18.09-.52l-.7-2a.31.31,0,0,0-.41-.18,10.41,10.41,0,0,1-4.42.79,4.39,4.39,0,0,1-4.93-4.85h10.76a.32.32,0,0,0,.32-.28,11.48,11.48,0,0,0-.33-4.64Z"/><path class="cls-2" d="M77.21,85.66a2.15,2.15,0,0,1-.62-.64,2.52,2.52,0,0,1-.33-1.4,2.37,2.37,0,0,1,1-2.09,4.88,4.88,0,0,1,3.12-.77,22.8,22.8,0,0,1,2.92.24v4.9h0a23.06,23.06,0,0,1-2.91.39,4.88,4.88,0,0,1-3.15-.63m4.28-7.57c-.44,0-1,0-1.68,0a10.46,10.46,0,0,0-2.65.34,7.15,7.15,0,0,0-2.25,1,5,5,0,0,0-2.13,4.26,5.62,5.62,0,0,0,.49,2.46,4.41,4.41,0,0,0,1.4,1.68,5.81,5.81,0,0,0,2.2,1,12.43,12.43,0,0,0,2.85.29A19.77,19.77,0,0,0,83,88.79c1.05-.18,2.35-.44,2.71-.52l.75-.2a.33.33,0,0,0,.25-.35V77.88c0-2.16-.57-3.76-1.71-4.76A7.36,7.36,0,0,0,80,71.64a18.48,18.48,0,0,0-2.89.26,10.57,10.57,0,0,0-3.32,1.21.34.34,0,0,0-.09.43l.76,2a.27.27,0,0,0,.35.18l.18-.09a10.85,10.85,0,0,1,4.69-1.09,4.35,4.35,0,0,1,2.66.69c.59.45.89,1.13.89,2.57v.45c-.93-.13-1.78-.21-1.78-.21"/><path class="cls-2" d="M168.32,72.54a.28.28,0,0,0-.16-.38,9.05,9.05,0,0,0-1.8-.31,5.31,5.31,0,0,0-2.78.45,4.83,4.83,0,0,0-1.82,1.34V72.33a.31.31,0,0,0-.31-.33h-2.76a.31.31,0,0,0-.31.33v16a.33.33,0,0,0,.33.33h2.83a.32.32,0,0,0,.32-.33v-8a9.3,9.3,0,0,1,.36-2.82,4.09,4.09,0,0,1,.94-1.59,3.41,3.41,0,0,1,1.33-.8,5.35,5.35,0,0,1,1.45-.2,6.27,6.27,0,0,1,1.18.14c.21,0,.32-.1.39-.29.19-.49.71-2,.81-2.26"/><path class="cls-2" d="M141.77,65.1a8.73,8.73,0,0,0-1.06-.25,7.82,7.82,0,0,0-1.46-.11,6.19,6.19,0,0,0-4.56,1.63,8.94,8.94,0,0,0-2.17,4.89l-.13.72H130a.36.36,0,0,0-.36.32l-.4,2.24c0,.21.06.34.35.34h2.38L129.5,88.36a17.22,17.22,0,0,1-.64,2.65,5.57,5.57,0,0,1-.75,1.53,2,2,0,0,1-1,.76,3.86,3.86,0,0,1-1.27.18,5,5,0,0,1-.86-.09,2.63,2.63,0,0,1-.58-.19.29.29,0,0,0-.39.17c-.09.23-.72,2-.8,2.19a.32.32,0,0,0,.17.43,8.49,8.49,0,0,0,1,.29,6.6,6.6,0,0,0,1.58.15,7.87,7.87,0,0,0,2.64-.41,5,5,0,0,0,2-1.39,7.12,7.12,0,0,0,1.4-2.41,21.18,21.18,0,0,0,1-3.61l2.42-13.73h3.55a.36.36,0,0,0,.36-.31l.4-2.24c0-.21-.06-.35-.35-.35h-3.44a14.14,14.14,0,0,1,.56-2.43,3.16,3.16,0,0,1,.76-1.14,2.1,2.1,0,0,1,.9-.56,3.49,3.49,0,0,1,1.16-.17,4.5,4.5,0,0,1,.88.09l.55.13c.35.11.4,0,.47-.16l.82-2.26a.28.28,0,0,0-.2-.38"/><path class="cls-2" d="M93.68,88.39a.31.31,0,0,1-.31.32H90.51a.3.3,0,0,1-.3-.32v-23a.31.31,0,0,1,.3-.33h2.86a.32.32,0,0,1,.31.33v23Z"/></svg>