<svg xmlns="http://www.w3.org/2000/svg" data-name="Layer 1" viewBox="0 0 100 125" x="0px" y="0px"><title>Artboard 62</title><path d="M98,62.34H74.57L68.65,52.13a2.92,2.92,0,0,1,1-4l12.63-7.6a2.92,2.92,0,0,1,4,1L97,60A10.28,10.28,0,0,1,98,62.34Zm-.17,6.17-32.19,0,0-6.28a1.65,1.65,0,0,0-2.93-1L51.07,75.42a5.41,5.41,0,0,0,0,6.87L62.78,96.45a1.65,1.65,0,0,0,2.93-1.06l0-6.28,14.64-.05a10.29,10.29,0,0,0,8.9-5.17L97,70.3A10.24,10.24,0,0,0,97.83,68.51ZM41.48,89a2.92,2.92,0,0,0,2.91-3l-.27-14.74a2.92,2.92,0,0,0-2.93-2.87H29.39L17.68,88.7a10.28,10.28,0,0,0,2.51.31ZM3.39,70.34l7.87,13.55a10.24,10.24,0,0,0,1.16,1.58L28.5,57.59l5.44,3.12a1.65,1.65,0,0,0,2.37-2l-6.5-17.17a5.41,5.41,0,0,0-6-3.42l-18.1,3a1.65,1.65,0,0,0-.55,3.07l5.44,3.12L3.37,60A10.29,10.29,0,0,0,3.39,70.34ZM33.68,8.16,23.07,26.61a2.92,2.92,0,0,0,1.12,4l12.9,7.14A2.92,2.92,0,0,0,41,36.66l5.89-10.23L35.21,6.14A10.28,10.28,0,0,0,33.68,8.16Zm18.2,29.12,18.12,3a5.41,5.41,0,0,0,5.94-3.45l6.41-17.2a1.65,1.65,0,0,0-2.38-2l-5.43,3.15L67.17,8.07a10.29,10.29,0,0,0-8.93-5.12L42.58,3a10.24,10.24,0,0,0-1.94.21L56.74,31.06l-5.43,3.15A1.65,1.65,0,0,0,51.88,37.28Z"/><text x="0" y="115" fill="#000000" font-size="5px" font-weight="bold" font-family="'Helvetica Neue', Helvetica, Arial-Unicode, Arial, Sans-serif">Created by Gregor Cresnar</text><text x="0" y="120" fill="#000000" font-size="5px" font-weight="bold" font-family="'Helvetica Neue', Helvetica, Arial-Unicode, Arial, Sans-serif">from the Noun Project</text></svg>