<svg xmlns="http://www.w3.org/2000/svg" xmlns:xlink="http://www.w3.org/1999/xlink" version="1.1" x="0px" y="0px" viewBox="0 0 100 125" style="enable-background:new 0 0 100 100;" xml:space="preserve"><g><path d="M86.6,20.2H13.4c-4.3,0-7.8,3.5-7.8,7.8v43.9c0,4.3,3.5,7.8,7.8,7.8h73.1c4.3,0,7.8-3.5,7.8-7.8V28.1   C94.4,23.7,90.9,20.2,86.6,20.2z M18.3,37.7h11.6c1.1,0,2,0.9,2,2s-0.9,2-2,2H18.3c-1.1,0-2-0.9-2-2S17.2,37.7,18.3,37.7z    M41.6,48.4H18.3c-1.1,0-2-0.9-2-2s0.9-2,2-2h23.3c1.1,0,2,0.9,2,2S42.7,48.4,41.6,48.4z M84.9,66.9c0,1.9-1.6,3.5-3.5,3.5h-5.9   c-1.9,0-3.5-1.6-3.5-3.5V61c0-1.9,1.6-3.5,3.5-3.5h5.9c1.9,0,3.5,1.6,3.5,3.5V66.9z"/></g><text x="0" y="115" fill="#000000" font-size="5px" font-weight="bold" font-family="'Helvetica Neue', Helvetica, Arial-Unicode, Arial, Sans-serif">Created by Ananth</text><text x="0" y="120" fill="#000000" font-size="5px" font-weight="bold" font-family="'Helvetica Neue', Helvetica, Arial-Unicode, Arial, Sans-serif">from the Noun Project</text></svg>