<svg xmlns="http://www.w3.org/2000/svg" xmlns:xlink="http://www.w3.org/1999/xlink" version="1.1" x="0px" y="0px" viewBox="0 0 100 125" enable-background="new 0 0 100 100" xml:space="preserve"><path fill="#000000" d="M89.5,88.2c-0.9-0.7-1.7-1.5-2.2-2.5c-0.4-0.9-0.5-2-0.6-3c-0.6-10.2-1.2-20.3-1.7-30.5  c-0.3-5.9-0.7-11.8-1.8-17.6c-0.7-3.3-1.6-6.5-3.6-9.2c-3.9-5.3-15.2-7.1-23.9-7.8c0.1-0.1,0.2-0.1,0.3-0.2c0.8-0.5,1.7-1.4,1.3-2.2  c-0.4-0.7-1.6-1.1-1.1-1.7c2.5-1.1,4.9-2.2,7.4-3.2C63.7,10.1,64,10,64,9.8c0-0.2-0.1-0.3-0.2-0.5c-1.2-1.8-2.7-3.7-4.8-3.6  c-2.6,0.1-4.4,3.3-7,3.5c0-0.1,0.1-0.3,0.1-0.4c0.5-2.3-1.6-4.4-3.8-3.8c0,0,0,0-0.1,0c-1.7,0.4-3.2,1.9-3.1,3.7  c-1.3-0.4-2.6-0.8-4-1.1c-1.8-0.4-3.3,1.3-2.8,3l0,0c0.4,1.4,1.1,2.6,2.1,3.5c1.2,1.2,2.5,2.3,3.7,3.5c-8.4,0.8-18.8,2.6-22.6,7.8  c-2,2.7-2.9,6-3.6,9.2c-1.2,5.8-1.5,11.7-1.8,17.6c-0.6,10.2-1.2,20.3-1.7,30.5c-0.1,1-0.1,2.1-0.6,3c-0.5,1-1.3,1.7-2.2,2.5  c-1.8,1.5-1.2,4.4,1.1,5c1.6,0.4,3.4,0.6,5.1,0.6c8.6,0.3,17.3,0.6,25.9,0.9c2.3,0.1,4.5,0.2,6.8,0.1c2.3,0,4.5-0.1,6.8-0.1  c8.6-0.3,17.3-0.6,25.9-0.9c1.7-0.1,3.4-0.2,5.1-0.6C90.7,92.6,91.3,89.7,89.5,88.2z M31.1,32.2C29,28,43.6,19.8,43.6,19.8  S33.2,36.5,31.1,32.2z M50.6,38.8c-4.5-1.5,0-17.7,0-17.7S55.1,40.3,50.6,38.8z M69.1,32.2C67,36.5,56.6,19.8,56.6,19.8  S71.3,28,69.1,32.2z"/><text x="0" y="115" fill="#000000" font-size="5px" font-weight="bold" font-family="'Helvetica Neue', Helvetica, Arial-Unicode, Arial, Sans-serif">Created by parkjisun</text><text x="0" y="120" fill="#000000" font-size="5px" font-weight="bold" font-family="'Helvetica Neue', Helvetica, Arial-Unicode, Arial, Sans-serif">from the Noun Project</text></svg>