<svg xmlns="http://www.w3.org/2000/svg" xmlns:xlink="http://www.w3.org/1999/xlink" xml:space="preserve" version="1.1" style="shape-rendering:geometricPrecision;text-rendering:geometricPrecision;image-rendering:optimizeQuality;" viewBox="0 0 50 62.5" x="0px" y="0px" fill-rule="evenodd" clip-rule="evenodd"><defs><style type="text/css">
   
    .fil0 {fill:none}
    .fil1 {fill:black}
   
  </style></defs><g><rect class="fil0" width="50" height="50"/><path class="fil1" d="M11 10l4 0 0 3c0,2 1,3 3,3l2 0c2,0 3,-1 3,-3l0 -3 4 0 0 3c0,2 1,3 3,3l2 0c2,0 3,-1 3,-3l0 -3 4 0c2,0 3,1 3,3l0 28c0,2 -1,3 -3,3l-28 0c-2,0 -3,-1 -3,-3l0 -28c0,-2 1,-3 3,-3zm1 7l26 0 0 23 -26 0 0 -23z"/><rect class="fil1" x="16" y="6" width="5.35206" height="8.805" rx="2" ry="2"/><rect class="fil1" x="28" y="6" width="5.35206" height="8.805" rx="2" ry="2"/><polygon class="fil1" points="14,19 20,19 20,25 14,25 "/><polygon class="fil1" points="22,19 28,19 28,25 22,25 "/><polygon class="fil1" points="30,19 36,19 36,25 30,25 "/><polygon class="fil1" points="14,26 20,26 20,31 14,31 "/><polygon class="fil1" points="22,26 28,26 28,31 22,31 "/><polygon class="fil1" points="30,26 36,26 36,31 30,31 "/><polygon class="fil1" points="14,33 20,33 20,38 14,38 "/><polygon class="fil1" points="22,33 28,33 28,38 22,38 "/><polygon class="fil1" points="30,33 36,33 36,38 30,38 "/></g><text x="0" y="65" fill="#000000" font-size="5px" font-weight="bold" font-family="'Helvetica Neue', Helvetica, Arial-Unicode, Arial, Sans-serif">Created by Akhmad taufiq</text><text x="0" y="70" fill="#000000" font-size="5px" font-weight="bold" font-family="'Helvetica Neue', Helvetica, Arial-Unicode, Arial, Sans-serif">from the Noun Project</text></svg>