<svg xmlns="http://www.w3.org/2000/svg" viewBox="0 0 48 60" x="0px" y="0px"><title>Bottle</title><path d="M19,48H29a5,5,0,0,0,5-5V16a1,1,0,0,0-.17-.55L28,6.7V6a1,1,0,0,0,1-1V1a1,1,0,0,0-1-1H20a1,1,0,0,0-1,1V5a1,1,0,0,0,1,1v.7l-5.83,8.75A1,1,0,0,0,14,16V43A5,5,0,0,0,19,48ZM16,16.3l5.83-8.75A1,1,0,0,0,22,7V6h4V7a1,1,0,0,0,.17.55L32,16.3V43a3,3,0,0,1-3,3H28a4.92,4.92,0,0,0,1-3H27a3,3,0,0,1-6,0H19a4.92,4.92,0,0,0,1,3H19a3,3,0,0,1-3-3Z"/><text x="0" y="63" fill="#000000" font-size="5px" font-weight="bold" font-family="'Helvetica Neue', Helvetica, Arial-Unicode, Arial, Sans-serif">Created by Lagot Design</text><text x="0" y="68" fill="#000000" font-size="5px" font-weight="bold" font-family="'Helvetica Neue', Helvetica, Arial-Unicode, Arial, Sans-serif">from the Noun Project</text></svg>