<svg xmlns="http://www.w3.org/2000/svg" data-name="Layer 1" viewBox="0 0 48 60" x="0px" y="0px"><title>education solid icons</title><path d="M47.2,45.92a16.94,16.94,0,0,0-.88-2.54,70.53,70.53,0,0,0-3.82-7.51A62.44,62.44,0,0,0,37,27.72a.79.79,0,0,0-.62-.28.81.81,0,0,0-.59.31,1.48,1.48,0,0,1-.25.25l-.26.15a2,2,0,0,1-.44.1.77.77,0,0,0-.59.34.8.8,0,0,0-.09.67,62,62,0,0,0,4.35,8.89,68.28,68.28,0,0,0,4.61,7.07,15.76,15.76,0,0,0,1.76,2c.31.29,1.12,1.06,1.88.62S47.29,46.34,47.2,45.92Z"/><path d="M35.14,23A7.29,7.29,0,0,0,34,20a12,12,0,0,0-4.36-3.87c-.29-.16-1.23-.66-1.42-.55a10.78,10.78,0,0,0,.23,1.55c.3,2.4-1,5.36.54,7.47A4.79,4.79,0,0,0,31,26.18a3.08,3.08,0,0,0,2.57.05l.26-.13A1.64,1.64,0,0,0,34,26,3,3,0,0,0,35.14,23Z"/><path d="M25.44,27.4a8.47,8.47,0,0,1-.07-4.35,14.71,14.71,0,0,1,.07-3.48,9.59,9.59,0,0,0,.1-2.06l0-.09c-.28-1.48-.62-3.32,1.26-4.39a3.26,3.26,0,0,1,1.53-.4,5.33,5.33,0,0,1,2.8,1,17.34,17.34,0,0,1,2.81,2C36.7,15,44.43,13,43.18,8.49,41.25,1.5,28.72,0,22.91,0,10.63,0,.68,9.42.68,21s9.94,21,22.22,21c2.59,0,6.8-.06,7.69-3.12,1.13-3.88-4.06-7.92-5.08-11.28C25.49,27.57,25.46,27.48,25.44,27.4ZM29.67,3a4.38,4.38,0,1,1-4.38,4.38A4.38,4.38,0,0,1,29.67,3ZM15.82,6.23a3.58,3.58,0,1,1-3.57,3.58A3.58,3.58,0,0,1,15.82,6.23ZM9.7,13.86a3.58,3.58,0,1,1-3.58,3.58A3.57,3.57,0,0,1,9.7,13.86Zm0,16.94a3.58,3.58,0,1,1,3.57-3.57A3.57,3.57,0,0,1,9.7,30.8Zm7.15,6.33a3.58,3.58,0,1,1,3.58-3.57A3.58,3.58,0,0,1,16.85,37.13Z"/><text x="0" y="63" fill="#000000" font-size="5px" font-weight="bold" font-family="'Helvetica Neue', Helvetica, Arial-Unicode, Arial, Sans-serif">Created by tulpahn</text><text x="0" y="68" fill="#000000" font-size="5px" font-weight="bold" font-family="'Helvetica Neue', Helvetica, Arial-Unicode, Arial, Sans-serif">from the Noun Project</text></svg>