<svg xmlns="http://www.w3.org/2000/svg" xmlns:xlink="http://www.w3.org/1999/xlink" version="1.1" x="0px" y="0px" viewBox="0 0 100 125" enable-background="new 0 0 100 100" xml:space="preserve"><g><path fill="#000000" d="M55.1,9.2C40.9,3.5,27.6,3.6,25.3,9.4c-0.1,0.2-0.2,0.4-0.2,0.7L24.2,13c-0.5,1.6-0.3,3.4,0.5,4.9   c1.9,3.6,7.1,9.9,20.8,15.3c13.8,5.5,21.9,4.5,25.7,3.3c1.6-0.5,2.8-1.6,3.6-3.1l1.5-3c0,0,0,0,0-0.1l0,0l0,0   c0.1-0.1,0.2-0.3,0.2-0.5C78.8,24.1,69.2,14.8,55.1,9.2z M64.7,24.9c-0.4,0.9-1.4,1.4-2.4,1L57,23.8c-0.7-0.3-1.2-1-1.1-1.8   c0-0.3,0-3.2-4-4.8c-4-1.6-6,0.5-6.2,0.7c-0.5,0.6-1.3,0.8-2.1,0.5l-5-2c-0.9-0.4-1.4-1.4-1-2.4c0.4-0.9,1.4-1.4,2.4-1l3.9,1.6   c1.5-1.2,4.6-2.7,9.3-0.8c4.7,1.9,5.9,5.2,6.2,7.1l4.3,1.7C64.7,22.9,65.1,24,64.7,24.9z"/><path fill="#000000" d="M71.2,39.6c-4.3,2.4-11.6,4.8-23.2,4.8c-11.2,0-17.7-2.3-22.1-4.7c-0.7-0.4-1.5-1.1-1.4-1.9   c0.1-1,0.7-1.7,2-2.4c2-1,4.5-2,13-2.1c0.2,0,0.3-0.3,0.1-0.4l-2.3-1.2c-0.6-0.3-1.4-0.5-2.1-0.5c-6.7,0.4-11,1.7-12.7,3.9   c-0.5,0.6-1,1.6-0.8,2.9l0,39.8c0,4.8,2.4,9.4,6.5,11.9c4.2,2.6,10.6,5.1,20,5.1c8.9,0,15-2.1,19.1-4.5c4.4-2.5,7-7.2,7-12.3   l0-36.8C74.3,39.8,72.6,38.8,71.2,39.6z M35.5,80.7c0,2-1.4,3.6-3.1,3.6s-3.1-1.6-3.1-3.6V52.1c0-2,1.4-3.6,3.1-3.6   s3.1,1.6,3.1,3.6V80.7z M51.3,84.7c0,2.2-1.4,3.9-3.1,3.9S45,86.9,45,84.7V54.1c0-2.2,1.4-3.9,3.1-3.9s3.1,1.7,3.1,3.9V84.7z    M67,80.7c0,2-1.4,3.6-3.1,3.6c-1.7,0-3.1-1.6-3.1-3.6V52.1c0-2,1.4-3.6,3.1-3.6c1.7,0,3.1,1.6,3.1,3.6V80.7z"/></g><text x="0" y="115" fill="#000000" font-size="5px" font-weight="bold" font-family="'Helvetica Neue', Helvetica, Arial-Unicode, Arial, Sans-serif">Created by parkjisun</text><text x="0" y="120" fill="#000000" font-size="5px" font-weight="bold" font-family="'Helvetica Neue', Helvetica, Arial-Unicode, Arial, Sans-serif">from the Noun Project</text></svg>